name Walk3.mot
datacolumns 19
datarows 17
range 2.34000000 2.35600000
endheader

                time	   L_ground_force_vx	   L_ground_force_vy	   L_ground_force_vz	   L_ground_force_px	   L_ground_force_py	   L_ground_force_pz	   R_ground_force_vx	   R_ground_force_vy	   R_ground_force_vz	   R_ground_force_px	   R_ground_force_py	   R_ground_force_pz	   L_ground_torque_x	   L_ground_torque_y	   L_ground_torque_z	   R_ground_torque_x	   R_ground_torque_y	   R_ground_torque_z	
          2.34000000	         -0.00000000	         -0.00000000	          0.00000000	          0.00000000	          0.00000000	          0.00000000	         16.29100832	         51.95191166	          3.93069423	          0.20144194	          0.00000000	          0.03952908	          0.00000000	         -0.00000000	          0.00000000	          0.00000000	          0.01480160	          0.00000000	
          2.34100000	         -0.00000000	         -0.00000000	          0.00000000	          0.00000000	          0.00000000	          0.00000000	         15.18730177	         48.26972641	          3.65861185	          0.19632517	          0.00000000	          0.03855648	          0.00000000	         -0.00000000	          0.00000000	          0.00000000	          0.01607544	          0.00000000	
          2.34200000	         -0.00000000	         -0.00000000	          0.00000000	          0.00000000	          0.00000000	          0.00000000	         14.12273424	         44.72899114	          3.39518067	          0.19104626	          0.00000000	          0.03755043	          0.00000000	         -0.00000000	          0.00000000	          0.00000000	          0.01720083	          0.00000000	
          2.34300000	         -0.00000000	         -0.00000000	          0.00000000	          0.00000000	          0.00000000	          0.00000000	         13.09738624	         41.32864406	          3.14076935	          0.18561393	          0.00000000	          0.03651233	          0.00000000	         -0.00000000	          0.00000000	          0.00000000	          0.01818136	          0.00000000	
          2.34400000	         -0.00000000	         -0.00000000	         -0.00000000	          0.00000000	          0.00000000	          0.00000000	         12.11127038	         38.06750798	          2.89568142	          0.18003837	          0.00000000	          0.03544396	          0.00000000	         -0.00000000	          0.00000000	          0.00000000	          0.01902153	          0.00000000	
          2.34500000	         -0.00000000	         -0.00000000	         -0.00000000	          0.00000000	          0.00000000	          0.00000000	         11.16433547	         34.94430373	          2.66015462	          0.17433137	          0.00000000	          0.03434750	          0.00000000	         -0.00000000	          0.00000000	          0.00000000	          0.01972662	          0.00000000	
          2.34600000	         -0.00000000	         -0.00000000	         -0.00000000	          0.00000000	          0.00000000	          0.00000000	         10.25647001	         31.95766096	          2.43436089	          0.16850639	          0.00000000	          0.03322552	          0.00000000	         -0.00000000	          0.00000000	          0.00000000	          0.02030262	          0.00000000	
          2.34700000	         -0.00000000	         -0.00000000	         -0.00000000	          0.00000000	          0.00000000	          0.00000000	          9.38750463	         29.10612389	          2.21840715	          0.16257866	          0.00000000	          0.03208105	          0.00000000	         -0.00000000	          0.00000000	          0.00000000	          0.02075614	          0.00000000	
          2.34800000	         -0.00000000	         -0.00000000	         -0.00000000	          0.00000000	          0.00000000	          0.00000000	          8.55721266	         26.38814892	          2.01233736	          0.15656525	          0.00000000	          0.03091750	          0.00000000	         -0.00000000	          0.00000000	          0.00000000	          0.02109434	          0.00000000	
          2.34900000	          0.00000000	         -0.00000000	         -0.00000000	          0.00000000	          0.00000000	          0.00000000	          7.76530813	         23.80209089	          1.81613624	          0.15048514	          0.00000000	          0.02973873	          0.00000000	         -0.00000000	          0.00000000	          0.00000000	          0.02132480	          0.00000000	
          2.35000000	          0.00000000	         -0.00000000	         -0.00000000	          0.00000000	          0.00000000	          0.00000000	          7.01144094	         21.34617723	          1.62973488	          0.14435932	          0.00000000	          0.02854897	          0.00000000	         -0.00000000	          0.00000000	          0.00000000	          0.02145533	          0.00000000	
          2.35100000	          0.00000000	          0.00000000	         -0.00000000	          0.00000000	          0.00000000	          0.00000000	          6.29518926	         19.01846934	          1.45301847	          0.13821062	          0.00000000	          0.02735283	          0.00000000	         -0.00000000	          0.00000000	          0.00000000	          0.02149374	          0.00000000	
          2.35200000	          0.00000000	          0.00000000	         -0.00000000	          0.00000000	          0.00000000	          0.00000000	          5.61604996	         16.81681393	          1.28583590	          0.13206269	          0.00000000	          0.02615509	          0.00000000	         -0.00000000	          0.00000000	          0.00000000	          0.02144767	          0.00000000	
          2.35300000	          0.00000000	          0.00000000	         -0.00000000	          0.00000000	          0.00000000	          0.00000000	          4.97343217	         14.73880561	          1.12800900	          0.12593846	          0.00000000	          0.02496035	          0.00000000	         -0.00000000	          0.00000000	          0.00000000	          0.02132447	          0.00000000	
          2.35400000	          0.00000000	          0.00000000	         -0.00000000	          0.00000000	          0.00000000	          0.00000000	          4.36665898	         12.78178369	          0.97933872	          0.11985904	          0.00000000	          0.02377287	          0.00000000	         -0.00000000	          0.00000000	          0.00000000	          0.02113117	          0.00000000	
          2.35500000	          0.00000000	          0.00000000	         -0.00000000	          0.00000000	          0.00000000	          0.00000000	          3.79497558	         10.94285654	          0.83960832	          0.11384360	          0.00000000	          0.02259652	          0.00000000	         -0.00000000	          0.00000000	          0.00000000	          0.02087445	          0.00000000	
          2.35600000	          0.00000000	          0.00000000	         -0.00000000	          0.00000000	          0.00000000	          0.00000000	          3.25755876	          9.21893212	          0.70858569	          0.10790943	          0.00000000	          0.02143481	          0.00000000	         -0.00000000	          0.00000000	          0.00000000	          0.02056068	          0.00000000	
